P3
10 20
255
6 109 135
219 241 172
125 229 135
20 82 10
212 194 2
186 146 196
131 149 61
17 178 98
187 118 226
126 231 96
108 111 93
94 28 226
195 164 190
22 46 187
217 175 208
108 116 37
3 177 95
53 148 227
44 119 244
20 215 48
132 180 47
160 151 155
196 214 121
114 18 62
35 226 84
151 136 46
74 231 27
222 203 157
213 65 210
173 240 254
225 32 147
248 59 24
207 181 56
226 243 125
69 72 239
205 246 19
54 145 171
129 47 117
66 129 211
52 129 169
211 148 214
16 172 184
197 100 49
57 225 2
1 210 100
247 229 169
137 17 247
56 134 173
186 90 47
187 131 114
80 90 38
124 146 249
224 196 10
195 70 79
150 170 136
251 211 138
141 75 2
147 248 12
110 168 195
241 154 126
204 192 185
222 58 137
35 196 6
105 147 231
147 156 43
231 166 65
178 168 188
44 52 74
212 248 222
238 246 77
47 177 190
105 59 139
173 66 234
66 169 14
222 212 247
133 149 11
173 82 242
226 157 166
91 251 210
82 73 39
4 135 22
191 147 196
129 126 46
43 12 220
127 4 158
21 16 125
230 130 3
132 168 176
0 250 19
73 34 110
81 183 193
228 124 69
99 43 5
238 135 6
243 38 49
131 163 48
133 38 196
47 214 172
42 106 176
77 216 177
132 26 122
129 96 203
172 228 48
52 235 19
90 156 3
125 77 118
163 18 249
249 62 127
100 111 174
189 33 89
215 27 38
183 103 170
157 151 44
9 43 88
165 46 140
242 36 102
133 30 227
67 29 135
178 76 130
83 165 102
111 203 36
86 245 124
109 162 52
152 250 81
70 8 90
106 237 128
8 210 115
38 217 120
241 219 188
151 67 238
226 230 67
88 226 50
122 24 8
118 232 117
253 195 142
235 68 212
62 55 191
25 176 199
244 236 109
183 219 95
31 158 118
2 208 216
153 216 50
3 206 172
198 93 162
11 177 32
66 113 13
114 185 202
95 39 227
187 7 89
90 252 144
171 214 47
4 136 50
210 180 75
175 88 78
98 247 148
211 132 159
141 80 98
53 52 212
187 13 180
184 30 112
143 77 74
24 254 245
205 75 122
165 25 204
157 174 125
35 205 223
115 48 51
39 133 193
180 58 118
210 42 50
32 116 234
32 234 123
234 101 19
131 50 96
50 47 6
128 15 36
176 67 71
181 132 58
111 122 224
153 172 149
142 23 231
121 18 136
94 38 168
16 134 19
64 13 150
79 49 201
18 247 201
22 50 249
144 146 176
188 168 32
84 144 186
102 25 73
12 65 66
19 84 160
32 235 176
208 53 240
200 254 192
122 248 82
13 41 232
