P3
# CREATOR: GIMP PNM Filter Version 1.1
16 16
255
64
136
72
40
120
56
64
136
72
40
120
56
72
152
72
72
152
72
72
152
72
72
152
72
72
152
72
72
152
72
72
152
72
72
152
72
40
120
56
64
136
72
40
120
56
64
136
72
40
120
56
40
120
56
40
120
56
72
152
72
72
152
72
40
120
56
40
120
56
72
152
72
72
152
72
40
120
56
40
120
56
72
152
72
72
152
72
40
120
56
40
120
56
40
120
56
40
120
56
72
152
72
72
152
72
72
152
72
72
152
72
72
152
72
40
120
56
72
152
72
72
152
72
40
120
56
72
152
72
72
152
72
72
152
72
72
152
72
72
152
72
40
120
56
40
120
56
72
152
72
72
152
72
72
152
72
72
152
72
72
152
72
72
152
72
72
152
72
72
152
72
72
152
72
72
152
72
72
152
72
72
152
72
72
152
72
72
152
72
40
120
56
72
152
72
72
152
72
72
152
72
72
152
72
40
120
56
40
120
56
72
152
72
72
152
72
72
152
72
72
152
72
40
120
56
40
120
56
72
152
72
72
152
72
72
152
72
72
152
72
72
152
72
40
120
56
40
120
56
72
152
72
40
120
56
72
152
72
72
152
72
40
120
56
40
120
56
72
152
72
72
152
72
40
120
56
72
152
72
40
120
56
40
120
56
72
152
72
72
152
72
72
152
72
40
120
56
72
152
72
72
152
72
72
152
72
72
152
72
72
152
72
72
152
72
72
152
72
72
152
72
72
152
72
72
152
72
40
120
56
72
152
72
72
152
72
72
152
72
72
152
72
72
152
72
72
152
72
72
152
72
72
152
72
40
120
56
72
152
72
72
152
72
40
120
56
72
152
72
72
152
72
72
152
72
72
152
72
72
152
72
72
152
72
72
152
72
72
152
72
72
152
72
72
152
72
72
152
72
72
152
72
40
120
56
72
152
72
72
152
72
40
120
56
72
152
72
72
152
72
72
152
72
72
152
72
72
152
72
72
152
72
72
152
72
72
152
72
40
120
56
72
152
72
72
152
72
72
152
72
72
152
72
72
152
72
72
152
72
72
152
72
72
152
72
72
152
72
72
152
72
40
120
56
72
152
72
72
152
72
72
152
72
40
120
56
40
120
56
72
152
72
40
120
56
72
152
72
72
152
72
40
120
56
40
120
56
72
152
72
72
152
72
40
120
56
72
152
72
40
120
56
40
120
56
72
152
72
72
152
72
72
152
72
72
152
72
72
152
72
40
120
56
40
120
56
72
152
72
72
152
72
72
152
72
72
152
72
40
120
56
40
120
56
72
152
72
72
152
72
72
152
72
72
152
72
40
120
56
72
152
72
72
152
72
72
152
72
72
152
72
72
152
72
72
152
72
72
152
72
72
152
72
72
152
72
72
152
72
72
152
72
72
152
72
72
152
72
72
152
72
40
120
56
40
120
56
72
152
72
72
152
72
72
152
72
72
152
72
72
152
72
40
120
56
72
152
72
72
152
72
40
120
56
72
152
72
72
152
72
72
152
72
72
152
72
72
152
72
40
120
56
40
120
56
40
120
56
40
120
56
72
152
72
72
152
72
40
120
56
40
120
56
72
152
72
72
152
72
40
120
56
40
120
56
72
152
72
72
152
72
40
120
56
40
120
56
40
120
56
64
136
72
40
120
56
64
136
72
40
120
56
72
152
72
72
152
72
72
152
72
72
152
72
72
152
72
72
152
72
72
152
72
72
152
72
40
120
56
64
136
72
40
120
56
64
136
72
