P3
10 20
255
249 146 120
36 14 83
130 26 120
235 173 245
43 61 253
69 109 59
124 106 194
238 77 157
68 137 29
129 24 159
147 144 162
161 227 29
60 91 65
233 209 68
38 80 47
147 139 218
252 78 160
202 107 28
211 136 11
235 40 207
123 75 208
95 104 100
59 41 134
141 237 193
220 29 171
104 119 209
181 24 228
33 52 98
42 190 45
82 15 1
30 223 108
7 196 231
48 74 199
29 12 130
186 183 16
50 9 236
201 110 84
126 208 138
189 126 44
203 126 86
44 107 41
239 83 71
58 155 206
198 30 253
254 45 155
8 26 86
118 238 8
199 121 82
69 165 208
68 124 141
175 165 217
131 109 6
31 59 245
60 185 176
105 85 119
4 44 117
114 180 253
108 7 243
145 87 60
14 101 129
51 63 70
33 197 118
220 59 249
150 108 24
108 99 212
24 89 190
77 87 67
211 203 181
43 7 33
17 9 178
208 78 65
150 196 116
82 189 21
189 86 241
33 43 8
122 106 244
82 173 13
29 98 89
164 4 45
173 182 216
251 120 233
64 108 59
126 129 209
212 243 35
128 251 97
234 239 130
25 125 252
123 87 79
255 5 236
182 221 145
174 72 62
27 131 186
156 212 250
17 120 249
12 217 206
124 92 207
122 217 59
208 41 83
213 149 79
178 39 78
123 229 133
126 159 52
83 27 207
203 20 236
165 99 252
130 178 137
92 237 6
6 193 128
155 144 81
66 222 166
40 228 217
72 152 85
98 104 211
246 212 167
90 209 115
13 219 153
122 225 28
188 226 120
77 179 125
172 90 153
144 52 219
169 10 131
146 93 203
103 5 174
185 247 165
149 18 127
247 45 140
217 38 135
14 36 67
104 188 17
29 25 188
167 29 205
133 231 247
137 23 138
2 60 113
20 187 43
193 200 64
230 79 56
11 19 146
72 36 160
224 97 137
253 47 39
102 39 205
252 49 83
57 162 93
244 78 223
189 142 242
141 70 53
160 216 28
68 248 166
165 3 111
84 41 208
251 119 205
45 75 180
80 167 177
157 8 107
44 123 96
114 175 157
202 203 43
68 242 75
71 225 143
112 178 181
231 1 10
50 180 133
90 230 51
98 81 130
220 50 32
140 207 204
216 122 62
75 197 137
45 213 205
223 139 21
223 21 132
21 154 236
124 205 159
205 208 249
127 240 219
79 188 184
74 123 197
144 133 31
102 83 106
113 232 24
134 237 119
161 217 87
239 121 236
191 242 105
176 206 54
237 8 54
233 205 6
111 109 79
67 87 223
171 111 69
153 230 182
243 190 189
236 171 95
223 20 79
47 202 15
55 1 63
133 7 173
242 214 23
